<?xml version="1.0" encoding="UTF-8"?>
<!DOCTYPE svg PUBLIC "-//W3C//DTD SVG 1.1//EN" "http://www.w3.org/Graphics/SVG/1.1/DTD/svg11.dtd">
<svg xmlns="http://www.w3.org/2000/svg" version="1.1" width="1116px" height="232px" style="shape-rendering:geometricPrecision; text-rendering:geometricPrecision; image-rendering:optimizeQuality; fill-rule:evenodd; clip-rule:evenodd" xmlns:xlink="http://www.w3.org/1999/xlink">
<g><path style="opacity:0.921" fill="#ffffff" d="M 1.5,-0.5 C 68.5,-0.5 135.5,-0.5 202.5,-0.5C 203.801,0.88159 204.634,2.54826 205,4.5C 204.754,70.8264 204.42,137.16 204,203.5C 203.25,204.126 202.416,204.626 201.5,205C 135.5,205.667 69.5,205.667 3.5,205C 1.86698,204.52 0.533646,203.687 -0.5,202.5C -0.5,135.5 -0.5,68.5 -0.5,1.5C 0.5,1.16667 1.16667,0.5 1.5,-0.5 Z M 9.5,9.5 C 38.5019,9.33336 67.5019,9.50002 96.5,10C 90.8817,16.0624 86.3817,22.8957 83,30.5C 62.2866,21.7611 45.2866,26.4278 32,44.5C 26.8083,53.8668 25.1416,63.8668 27,74.5C 28.0281,77.5091 28.6948,80.5091 29,83.5C 21.4588,86.9356 14.7921,91.6023 9,97.5C 8.3382,68.1603 8.50487,38.827 9.5,9.5 Z M 107.5,10.5 C 136.662,9.50194 165.995,9.16861 195.5,9.5C 195.667,38.8352 195.5,68.1686 195,97.5C 188.688,91.841 181.688,87.1744 174,83.5C 182.168,60.6707 176.002,42.8373 155.5,30C 144.083,25.5254 132.583,25.3587 121,29.5C 116.979,22.7785 112.479,16.4452 107.5,10.5 Z M 100.5,19.5 C 102.017,19.5106 103.184,20.1772 104,21.5C 106.634,25.9354 109.134,30.4354 111.5,35C 107.718,39.3891 104.551,44.2224 102,49.5C 99.23,44.2967 95.73,39.63 91.5,35.5C 94.524,30.1121 97.524,24.7788 100.5,19.5 Z M 61.5,35.5 C 67.699,35.474 73.699,36.474 79.5,38.5C 78.2643,46.1231 77.2643,53.7898 76.5,61.5C 70.3101,65.5231 65.3101,70.6897 61.5,77C 54.5823,77.224 47.749,78.0573 41,79.5C 37.7833,77.0673 36.1166,73.734 36,69.5C 35.5651,51.4382 44.0651,40.1049 61.5,35.5 Z M 133.5,35.5 C 157.448,36.2805 168.614,48.6138 167,72.5C 166.358,74.7619 165.525,76.9285 164.5,79C 157.229,78.227 149.895,77.5603 142.5,77C 140.167,74 137.833,71 135.5,68C 132.64,65.6397 129.64,63.473 126.5,61.5C 126.421,54.314 125.421,47.1473 123.5,40C 126.703,37.9971 130.036,36.4971 133.5,35.5 Z M 87.5,46.5 C 90.0922,48.8274 92.0922,51.6608 93.5,55C 91.0991,56.0391 88.7657,56.2058 86.5,55.5C 87.4066,52.5788 87.7399,49.5788 87.5,46.5 Z M 114.5,46.5 C 116.175,49.5072 116.841,52.8405 116.5,56.5C 114.304,56.4348 112.304,55.7681 110.5,54.5C 111.86,51.7802 113.193,49.1136 114.5,46.5 Z M 93.5,64.5 C 101.035,63.9272 108.368,64.7605 115.5,67C 112.695,76.4321 108.195,84.9321 102,92.5C 94.6439,84.9641 90.4772,76.1308 89.5,66C 91.0581,65.79 92.3915,65.29 93.5,64.5 Z M 83.5,83.5 C 79.2963,82.4884 75.2963,80.9884 71.5,79C 74,76.5 76.5,74 79,71.5C 80.9919,75.3082 82.4919,79.3082 83.5,83.5 Z M 123.5,71.5 C 127.145,73.1449 129.812,75.8116 131.5,79.5C 127.618,81.0712 123.785,82.7378 120,84.5C 121.108,80.2433 122.275,75.91 123.5,71.5 Z M 54.5,86.5 C 55.4972,86.4701 56.1639,86.9701 56.5,88C 55.9221,89.8114 55.4221,91.6447 55,93.5C 51.9113,92.0404 49.0779,90.207 46.5,88C 49.3647,87.8171 52.0314,87.3171 54.5,86.5 Z M 147.5,87.5 C 158.991,86.8359 159.491,88.8359 149,93.5C 147.872,91.6547 147.372,89.6547 147.5,87.5 Z M 66.5,88.5 C 76.1508,91.1583 84.8175,95.6583 92.5,102C 84.9347,108.2 76.4347,112.7 67,115.5C 65.3548,111.133 64.1881,106.633 63.5,102C 64.1781,97.4098 65.1781,92.9098 66.5,88.5 Z M 134.5,88.5 C 135.5,88.5 136.5,88.5 137.5,88.5C 140.108,97.1762 140.108,105.843 137.5,114.5C 127.515,112.508 118.515,108.342 110.5,102C 117.817,96.1776 125.817,91.6776 134.5,88.5 Z M 34.5,91.5 C 39.0256,95.5009 44.0256,99.0009 49.5,102C 44.3859,104.789 39.5526,107.955 35,111.5C 29.2519,108.749 23.7519,105.582 18.5,102C 23.7274,98.2276 29.0607,94.7276 34.5,91.5 Z M 167.5,91.5 C 173.809,93.9863 179.475,97.4863 184.5,102C 179.556,106.058 174.056,109.225 168,111.5C 164.065,107.57 159.565,104.404 154.5,102C 159.311,99.0151 163.644,95.5151 167.5,91.5 Z M 194.5,105.5 C 195.498,135.329 195.831,165.329 195.5,195.5C 165.498,195.667 135.498,195.5 105.5,195C 111.612,188.61 116.612,181.443 120.5,173.5C 143.794,182.348 161.627,176.014 174,154.5C 178.819,143.217 178.652,132.05 173.5,121C 178.833,117.667 184.167,114.333 189.5,111C 191.373,109.296 193.04,107.463 194.5,105.5 Z M 8.5,106.5 C 15.37,111.76 22.37,116.76 29.5,121.5C 21.3316,145.849 28.665,163.682 51.5,175C 62.2291,178.687 72.7291,178.187 83,173.5C 86.6587,181.486 91.492,188.653 97.5,195C 67.8352,195.5 38.1685,195.667 8.5,195.5C 8.5,165.833 8.5,136.167 8.5,106.5 Z M 53.5,110.5 C 55.6138,111.784 56.6138,113.784 56.5,116.5C 53.0217,116.816 49.6883,116.316 46.5,115C 48.8981,113.476 51.2314,111.976 53.5,110.5 Z M 148.5,110.5 C 159.288,114.999 158.621,116.832 146.5,116C 147.244,114.185 147.911,112.352 148.5,110.5 Z M 100.5,111.5 C 102.017,111.511 103.184,112.177 104,113.5C 108.834,120.169 112.334,127.503 114.5,135.5C 114.182,136.647 113.516,137.481 112.5,138C 104.444,140.05 96.4441,139.884 88.5,137.5C 90.8878,128.06 94.8878,119.393 100.5,111.5 Z M 81.5,119.5 C 82.552,119.351 83.552,119.517 84.5,120C 82.4703,123.765 80.6369,127.598 79,131.5C 75.8333,129.667 73.3333,127.167 71.5,124C 75.2292,123.156 78.5626,121.656 81.5,119.5 Z M 119.5,119.5 C 123.633,121.489 127.967,122.989 132.5,124C 129.667,126.833 126.833,129.667 124,132.5C 122.486,128.146 120.986,123.812 119.5,119.5 Z M 39.5,123.5 C 46.7084,124.968 54.0418,125.968 61.5,126.5C 65.1412,133.308 70.3078,138.641 77,142.5C 77.224,149.418 78.0573,156.251 79.5,163C 65.4601,170.593 52.9601,168.426 42,156.5C 34.5136,145.966 33.6802,134.966 39.5,123.5 Z M 163.5,123.5 C 171.205,139.055 168.205,152.221 154.5,163C 144.158,168.696 133.825,168.863 123.5,163.5C 125.119,156.624 125.952,149.624 126,142.5C 133,138.167 138.667,132.5 143,125.5C 150.034,126.469 156.868,125.803 163.5,123.5 Z M 86.5,146.5 C 94.5866,147.691 95.0866,151.024 88,156.5C 87.5448,153.146 87.0448,149.813 86.5,146.5 Z M 115.5,146.5 C 116.851,149.772 116.684,153.106 115,156.5C 113.001,154.507 111.501,152.173 110.5,149.5C 111.947,148.065 113.614,147.065 115.5,146.5 Z M 101.5,154.5 C 104.213,159.391 107.546,163.891 111.5,168C 109.225,174.056 106.058,179.556 102,184.5C 97.6261,179.593 94.1261,174.093 91.5,168C 95.4522,163.916 98.7856,159.416 101.5,154.5 Z"/></g>
<g><path style="opacity:0.905" fill="#ffffff" d="M 445.5,60.5 C 457.055,59.7787 466.055,64.1121 472.5,73.5C 470.116,75.8847 467.45,77.8847 464.5,79.5C 458.047,71.7393 450.047,69.5727 440.5,73C 431.803,79.4315 428.969,87.9315 432,98.5C 438.057,109.722 446.89,112.722 458.5,107.5C 459.487,104.232 459.82,100.898 459.5,97.5C 454.833,97.5 450.167,97.5 445.5,97.5C 445.5,94.1667 445.5,90.8333 445.5,87.5C 453.833,87.5 462.167,87.5 470.5,87.5C 470.831,95.8599 470.498,104.193 469.5,112.5C 457.011,121.882 444.011,122.715 430.5,115C 419.668,103.866 417.168,91.033 423,76.5C 427.859,67.3313 435.359,61.9979 445.5,60.5 Z"/></g>
<g><path style="opacity:0.93" fill="#ffffff" d="M 257.5,62.5 C 273.167,62.5 288.833,62.5 304.5,62.5C 304.5,65.8333 304.5,69.1667 304.5,72.5C 298.5,72.5 292.5,72.5 286.5,72.5C 286.5,87.8333 286.5,103.167 286.5,118.5C 282.833,118.5 279.167,118.5 275.5,118.5C 275.5,103.167 275.5,87.8333 275.5,72.5C 269.5,72.5 263.5,72.5 257.5,72.5C 257.5,69.1667 257.5,65.8333 257.5,62.5 Z"/></g>
<g><path style="opacity:0.895" fill="#ffffff" d="M 309.5,62.5 C 313.167,62.5 316.833,62.5 320.5,62.5C 320.334,68.8421 320.5,75.1754 321,81.5C 325.536,76.8485 331.036,75.3485 337.5,77C 341.68,78.0021 344.514,80.5021 346,84.5C 347.433,95.7564 347.933,107.09 347.5,118.5C 343.833,118.5 340.167,118.5 336.5,118.5C 336.666,108.828 336.5,99.1609 336,89.5C 330.386,84.352 325.386,85.0187 321,91.5C 320.5,100.494 320.334,109.494 320.5,118.5C 316.833,118.5 313.167,118.5 309.5,118.5C 309.5,99.8333 309.5,81.1667 309.5,62.5 Z"/></g>
<g><path style="opacity:0.91" fill="#ffffff" d="M 604.5,62.5 C 608.167,62.5 611.833,62.5 615.5,62.5C 615.5,81.1667 615.5,99.8333 615.5,118.5C 612.167,118.5 608.833,118.5 605.5,118.5C 605.66,116.801 605.494,115.134 605,113.5C 598.08,119.93 590.247,121.097 581.5,117C 575.162,112.502 572.162,106.335 572.5,98.5C 573.393,81.049 582.393,74.2157 599.5,78C 600.966,78.6355 602.3,79.4688 603.5,80.5C 604.496,74.5368 604.829,68.5368 604.5,62.5 Z M 592.5,85.5 C 602.258,86.9881 606.091,92.6548 604,102.5C 600.23,109.414 594.73,111.247 587.5,108C 582.129,102.813 581.296,96.9795 585,90.5C 586.913,87.7197 589.413,86.053 592.5,85.5 Z"/></g>
<g><path style="opacity:0.904" fill="#ffffff" d="M 369.5,76.5 C 387.603,75.0031 395.603,83.3364 393.5,101.5C 384.167,101.5 374.833,101.5 365.5,101.5C 366.369,107.377 369.869,110.377 376,110.5C 380.538,110.065 384.204,108.065 387,104.5C 388.833,106.833 390.667,109.167 392.5,111.5C 384.486,119.667 375.153,121.5 364.5,117C 357.109,113.052 353.775,106.885 354.5,98.5C 354.072,87.3304 359.072,79.997 369.5,76.5 Z M 371.5,85.5 C 377.975,84.23 381.975,86.73 383.5,93C 377.167,93.6667 370.833,93.6667 364.5,93C 365.712,89.2922 368.046,86.7922 371.5,85.5 Z"/></g>
<g><path style="opacity:0.903" fill="#ffffff" d="M 493.5,76.5 C 515.215,75.9204 523.715,86.2538 519,107.5C 510.213,120.153 499.046,122.653 485.5,115C 478.465,107.347 476.631,98.5138 480,88.5C 482.85,82.5144 487.35,78.5144 493.5,76.5 Z M 494.5,86.5 C 508.335,86.1651 512.835,92.4984 508,105.5C 504.604,109.203 500.437,110.369 495.5,109C 486.625,101.904 486.291,94.404 494.5,86.5 Z"/></g>
<g><path style="opacity:0.903" fill="#ffffff" d="M 540.5,76.5 C 562.215,75.9204 570.715,86.2538 566,107.5C 557.213,120.153 546.046,122.653 532.5,115C 525.465,107.347 523.631,98.5138 527,88.5C 529.85,82.5144 534.35,78.5144 540.5,76.5 Z M 541.5,86.5 C 555.335,86.1651 559.835,92.4984 555,105.5C 551.604,109.203 547.437,110.369 542.5,109C 533.625,101.904 533.291,94.404 541.5,86.5 Z"/></g>
<g><path style="opacity:0.902" fill="#ffffff" d="M 864.5,142.5 C 876.306,141.309 885.306,145.643 891.5,155.5C 889.14,157.853 886.473,159.853 883.5,161.5C 876.601,153.16 868.268,151.327 858.5,156C 850.081,163.702 848.248,172.869 853,183.5C 859.698,191.765 867.864,193.598 877.5,189C 880.142,186.161 882.642,183.327 885,180.5C 888.166,181.167 891,182.5 893.5,184.5C 885.311,200.422 872.645,205.589 855.5,200C 844.695,194.569 839.362,185.736 839.5,173.5C 839.567,156.314 847.9,145.981 864.5,142.5 Z"/></g>
<g><path style="opacity:0.922" fill="#ffffff" d="M 262.5,144.5 C 267.099,144.2 271.599,144.533 276,145.5C 280.911,155.657 286.078,165.657 291.5,175.5C 297.027,165.779 302.027,155.779 306.5,145.5C 311.12,144.507 315.786,144.173 320.5,144.5C 320.5,163.167 320.5,181.833 320.5,200.5C 316.833,200.5 313.167,200.5 309.5,200.5C 309.667,188.829 309.5,177.162 309,165.5C 305.215,173.571 301.049,181.405 296.5,189C 292.789,189.825 289.122,189.659 285.5,188.5C 281.667,180.833 277.833,173.167 274,165.5C 273.5,177.162 273.333,188.829 273.5,200.5C 269.833,200.5 266.167,200.5 262.5,200.5C 262.5,181.833 262.5,163.167 262.5,144.5 Z"/></g>
<g><path style="opacity:0.886" fill="#ffffff" d="M 510.5,144.5 C 514.167,144.5 517.833,144.5 521.5,144.5C 521.333,159.504 521.5,174.504 522,189.5C 524.209,191.706 526.709,192.04 529.5,190.5C 534.641,197.88 532.641,201.547 523.5,201.5C 516.806,201.304 512.639,197.971 511,191.5C 510.5,175.837 510.333,160.17 510.5,144.5 Z"/></g>
<g><path style="opacity:0.936" fill="#ffffff" d="M 559.5,144.5 C 563.167,144.5 566.833,144.5 570.5,144.5C 570.5,152.167 570.5,159.833 570.5,167.5C 578.5,167.5 586.5,167.5 594.5,167.5C 594.5,159.833 594.5,152.167 594.5,144.5C 598.167,144.5 601.833,144.5 605.5,144.5C 605.5,163.167 605.5,181.833 605.5,200.5C 601.833,200.5 598.167,200.5 594.5,200.5C 594.5,192.833 594.5,185.167 594.5,177.5C 586.5,177.5 578.5,177.5 570.5,177.5C 570.5,185.167 570.5,192.833 570.5,200.5C 566.833,200.5 563.167,200.5 559.5,200.5C 559.5,181.833 559.5,163.167 559.5,144.5 Z"/></g>
<g><path style="opacity:0.886" fill="#ffffff" d="M 714.5,144.5 C 718.167,144.5 721.833,144.5 725.5,144.5C 725.333,159.504 725.5,174.504 726,189.5C 728.209,191.706 730.709,192.04 733.5,190.5C 738.641,197.88 736.641,201.547 727.5,201.5C 720.806,201.304 716.639,197.971 715,191.5C 714.5,175.837 714.333,160.17 714.5,144.5 Z"/></g>
<g><path style="opacity:0.895" fill="#ffffff" d="M 773.5,144.5 C 777.167,144.5 780.833,144.5 784.5,144.5C 784.334,150.842 784.5,157.175 785,163.5C 789.536,158.848 795.036,157.348 801.5,159C 805.68,160.002 808.514,162.502 810,166.5C 811.433,177.756 811.933,189.09 811.5,200.5C 807.833,200.5 804.167,200.5 800.5,200.5C 800.666,190.828 800.5,181.161 800,171.5C 794.386,166.352 789.386,167.019 785,173.5C 784.5,182.494 784.334,191.494 784.5,200.5C 780.833,200.5 777.167,200.5 773.5,200.5C 773.5,181.833 773.5,163.167 773.5,144.5 Z"/></g>
<g><path style="opacity:0.92" fill="#ffffff" d="M 425.5,149.5 C 429.167,149.5 432.833,149.5 436.5,149.5C 436.5,152.833 436.5,156.167 436.5,159.5C 440.5,159.5 444.5,159.5 448.5,159.5C 448.5,162.5 448.5,165.5 448.5,168.5C 444.5,168.5 440.5,168.5 436.5,168.5C 436.075,175.615 436.575,182.615 438,189.5C 441.598,192.089 445.264,192.089 449,189.5C 450.131,191.725 450.964,194.058 451.5,196.5C 445.59,202.073 438.923,202.906 431.5,199C 429.622,197.457 428.122,195.624 427,193.5C 425.67,185.227 425.17,176.893 425.5,168.5C 422.833,168.5 420.167,168.5 417.5,168.5C 417.5,165.5 417.5,162.5 417.5,159.5C 420.167,159.5 422.833,159.5 425.5,159.5C 425.5,156.167 425.5,152.833 425.5,149.5 Z"/></g>
<g><path style="opacity:0.92" fill="#ffffff" d="M 741.5,149.5 C 745.167,149.5 748.833,149.5 752.5,149.5C 752.5,152.833 752.5,156.167 752.5,159.5C 756.5,159.5 760.5,159.5 764.5,159.5C 764.5,162.5 764.5,165.5 764.5,168.5C 760.5,168.5 756.5,168.5 752.5,168.5C 752.075,175.615 752.575,182.615 754,189.5C 757.598,192.089 761.264,192.089 765,189.5C 766.131,191.725 766.964,194.058 767.5,196.5C 761.59,202.073 754.923,202.906 747.5,199C 745.622,197.457 744.122,195.624 743,193.5C 741.67,185.227 741.17,176.893 741.5,168.5C 738.833,168.5 736.167,168.5 733.5,168.5C 733.5,165.5 733.5,162.5 733.5,159.5C 736.167,159.5 738.833,159.5 741.5,159.5C 741.5,156.167 741.5,152.833 741.5,149.5 Z"/></g>
<g><path style="opacity:0.904" fill="#ffffff" d="M 344.5,158.5 C 362.603,157.003 370.603,165.336 368.5,183.5C 359.167,183.5 349.833,183.5 340.5,183.5C 341.369,189.377 344.869,192.377 351,192.5C 355.538,192.065 359.204,190.065 362,186.5C 363.833,188.833 365.667,191.167 367.5,193.5C 359.486,201.667 350.153,203.5 339.5,199C 332.109,195.052 328.775,188.885 329.5,180.5C 329.072,169.33 334.072,161.997 344.5,158.5 Z M 346.5,167.5 C 352.975,166.23 356.975,168.73 358.5,175C 352.167,175.667 345.833,175.667 339.5,175C 340.712,171.292 343.046,168.792 346.5,167.5 Z"/></g>
<g><path style="opacity:0.896" fill="#ffffff" d="M 393.5,158.5 C 399.605,157.651 405.105,158.984 410,162.5C 410.667,163.833 411.333,165.167 412,166.5C 413.433,177.756 413.933,189.09 413.5,200.5C 409.833,200.5 406.167,200.5 402.5,200.5C 402.666,190.828 402.5,181.161 402,171.5C 396.386,166.352 391.386,167.019 387,173.5C 386.5,182.494 386.334,191.494 386.5,200.5C 382.833,200.5 379.167,200.5 375.5,200.5C 375.5,186.833 375.5,173.167 375.5,159.5C 378.833,159.5 382.167,159.5 385.5,159.5C 385.34,161.199 385.506,162.866 386,164.5C 388.109,161.878 390.609,159.878 393.5,158.5 Z"/></g>
<g><path style="opacity:0.903" fill="#ffffff" d="M 468.5,158.5 C 474.893,157.605 480.727,158.939 486,162.5C 486.483,161.552 486.649,160.552 486.5,159.5C 490.167,159.5 493.833,159.5 497.5,159.5C 497.334,169.839 497.5,180.172 498,190.5C 500,191.833 502,191.833 504,190.5C 508.321,199.316 505.488,202.816 495.5,201C 492.087,199.923 489.587,197.756 488,194.5C 484.611,199.195 479.944,201.528 474,201.5C 464.587,201.096 458.254,196.429 455,187.5C 452.971,178.342 454.805,170.176 460.5,163C 463.099,161.205 465.766,159.705 468.5,158.5 Z M 474.5,167.5 C 484.258,168.988 488.091,174.655 486,184.5C 482.277,191.414 476.777,193.247 469.5,190C 464.129,184.813 463.296,178.979 467,172.5C 468.913,169.72 471.413,168.053 474.5,167.5 Z"/></g>
<g><path style="opacity:0.904" fill="#ffffff" d="M 628.5,158.5 C 646.603,157.003 654.603,165.336 652.5,183.5C 643.167,183.5 633.833,183.5 624.5,183.5C 625.369,189.377 628.869,192.377 635,192.5C 639.538,192.065 643.204,190.065 646,186.5C 647.833,188.833 649.667,191.167 651.5,193.5C 643.486,201.667 634.153,203.5 623.5,199C 616.109,195.052 612.775,188.885 613.5,180.5C 613.072,169.33 618.072,161.997 628.5,158.5 Z M 630.5,167.5 C 636.975,166.23 640.975,168.73 642.5,175C 636.167,175.667 629.833,175.667 623.5,175C 624.712,171.292 627.046,168.792 630.5,167.5 Z"/></g>
<g><path style="opacity:0.903" fill="#ffffff" d="M 672.5,158.5 C 678.893,157.605 684.727,158.939 690,162.5C 690.483,161.552 690.649,160.552 690.5,159.5C 694.167,159.5 697.833,159.5 701.5,159.5C 701.334,169.839 701.5,180.172 702,190.5C 704,191.833 706,191.833 708,190.5C 712.321,199.316 709.488,202.816 699.5,201C 696.087,199.923 693.587,197.756 692,194.5C 688.611,199.195 683.944,201.528 678,201.5C 668.587,201.096 662.254,196.429 659,187.5C 656.971,178.342 658.805,170.176 664.5,163C 667.099,161.205 669.766,159.705 672.5,158.5 Z M 678.5,167.5 C 688.258,168.988 692.091,174.655 690,184.5C 686.277,191.414 680.777,193.247 673.5,190C 668.129,184.813 667.296,178.979 671,172.5C 672.913,169.72 675.413,168.053 678.5,167.5 Z"/></g>
<g><path style="opacity:0.903" fill="#ffffff" d="M 913.5,158.5 C 935.215,157.92 943.715,168.254 939,189.5C 930.213,202.153 919.046,204.653 905.5,197C 898.465,189.347 896.631,180.514 900,170.5C 902.85,164.514 907.35,160.514 913.5,158.5 Z M 914.5,168.5 C 928.335,168.165 932.835,174.498 928,187.5C 924.604,191.203 920.437,192.369 915.5,191C 906.625,183.904 906.291,176.404 914.5,168.5 Z"/></g>
</svg>
