<svg xmlns="http://www.w3.org/2000/svg" xmlns:xlink="http://www.w3.org/1999/xlink" version="1.1" width="192px" height="192px" style="shape-rendering:geometricPrecision; text-rendering:geometricPrecision; image-rendering:optimizeQuality; fill-rule:evenodd; clip-rule:evenodd">

<g><path style="opacity:1" fill="#ffffff" d="M 67.5,40.5 C 55.6492,41.2488 43.6492,41.9155 31.5,42.5C 32.2625,41.7321 33.2625,41.2321 34.5,41C 45.495,40.5002 56.495,40.3335 67.5,40.5 Z"/></g>
<g><path style="opacity:1" fill="#ffffff" d="M 100.5,43.5 C 101.919,42.5489 103.585,42.2155 105.5,42.5C 105.196,43.1499 104.863,43.8165 104.5,44.5C 115.659,45.1667 126.659,45.8334 137.5,46.5C 126.833,46.5 116.167,46.5 105.5,46.5C 105.5,48.1667 105.5,49.8333 105.5,51.5C 104.71,50.3915 104.21,49.0581 104,47.5C 103.667,48.1667 103.333,48.8333 103,49.5C 102.349,47.765 102.515,46.0983 103.5,44.5C 102.675,43.6143 101.675,43.281 100.5,43.5 Z"/></g>
<g><path style="opacity:1" fill="#ffffff" d="M 31.5,42.5 C 43.6492,41.9155 55.6492,41.2488 67.5,40.5C 73.418,39.379 79.418,39.2124 85.5,40C 87.6667,40.8333 89.1667,42.3333 90,44.5C 90.0002,63.4964 89.6668,82.4964 89,101.5C 87.2002,103.317 85.0336,104.484 82.5,105C 64.5028,105.029 46.5028,104.695 28.5,104C 26.0622,101.705 24.5622,98.8717 24,95.5C 23.3669,78.1571 23.5336,60.8238 24.5,43.5C 26.861,43.3259 29.1944,42.9926 31.5,42.5 Z"/></g>
<g><path style="opacity:1" fill="#ffffff" d="M 83.5,45.5 C 84.1174,45.6107 84.6174,45.944 85,46.5C 85.8283,63.3384 85.6616,80.0051 84.5,96.5C 84.8051,79.4528 84.4718,62.4528 83.5,45.5 Z"/></g>
<g><path style="opacity:1" fill="#ffffff" d="M 29.5,51.5 C 29.473,57.0506 28.8063,62.3839 27.5,67.5C 27.376,61.9313 28.0427,56.598 29.5,51.5 Z"/></g>
<g/>
<g><path style="opacity:1" fill="#ffffff" d="M 100.5,43.5 C 101.675,43.281 102.675,43.6143 103.5,44.5C 102.515,46.0983 102.349,47.765 103,49.5C 103.333,48.8333 103.667,48.1667 104,47.5C 104.21,49.0581 104.71,50.3915 105.5,51.5C 106.855,63.4519 107.688,75.4519 108,87.5C 108.026,91.1391 108.86,94.4725 110.5,97.5C 114.203,99.055 118.203,99.7217 122.5,99.5C 128.716,99.476 134.716,98.8094 140.5,97.5C 144.755,97.4158 148.922,96.7491 153,95.5C 154.819,93.8743 156.152,91.8743 157,89.5C 157.267,76.8272 156.933,64.1605 156,51.5C 155.535,50.0692 154.701,48.9025 153.5,48C 148.166,47.4332 142.833,46.9332 137.5,46.5C 126.659,45.8334 115.659,45.1667 104.5,44.5C 104.863,43.8165 105.196,43.1499 105.5,42.5C 105.611,41.8826 105.944,41.3826 106.5,41C 122.52,40.3036 138.52,40.6369 154.5,42C 155.891,43.02 157.391,43.8534 159,44.5C 159.822,46.7885 160.489,49.1218 161,51.5C 161.715,66.1693 162.048,80.836 162,95.5C 160.199,98.7853 157.365,100.619 153.5,101C 138.61,103.538 123.61,104.538 108.5,104C 105.227,103.06 103.394,100.893 103,97.5C 102.33,79.483 101.497,61.483 100.5,43.5 Z"/></g>
<g><path style="opacity:1" fill="#ffffff" d="M 137.5,46.5 C 142.833,46.9332 148.166,47.4332 153.5,48C 154.701,48.9025 155.535,50.0692 156,51.5C 156.933,64.1605 157.267,76.8272 157,89.5C 156.152,91.8743 154.819,93.8743 153,95.5C 148.922,96.7491 144.755,97.4158 140.5,97.5C 132.58,98.333 122.58,98.333 110.5,97.5C 108.86,94.4725 108.026,91.1391 108,87.5C 107.688,75.4519 106.855,63.4519 105.5,51.5C 105.5,49.8333 105.5,48.1667 105.5,46.5C 116.167,46.5 126.833,46.5 137.5,46.5 Z"/></g>
<g><path style="opacity:1" fill="#ffffff" d="M 6.5,95.5 C 7.7682,97.9052 8.43487,100.572 8.5,103.5C 6.96046,101.162 6.29379,98.4951 6.5,95.5 Z"/></g>
<g><path style="opacity:1" fill="#ffffff" d="M 55.5,118.5 C 44.8231,118.567 34.1564,118.901 23.5,119.5C 19.7685,119.05 16.6018,117.383 14,114.5C 11.6738,110.983 9.84047,107.317 8.5,103.5C 8.43487,100.572 7.7682,97.9052 6.5,95.5C 6.5,89.5 6.5,83.5 6.5,77.5C 7.83333,77.5 9.16667,77.5 10.5,77.5C 11.6809,87.5699 13.5143,97.5699 16,107.5C 17.1667,110 19,111.833 21.5,113C 64.859,113.943 108.192,113.276 151.5,111C 158.12,110.77 163.62,108.27 168,103.5C 171.999,93.5613 173.499,83.228 172.5,72.5C 174.144,72.2865 175.644,72.6198 177,73.5C 178.656,86.4107 176.823,98.744 171.5,110.5C 170.315,111.853 168.981,113.02 167.5,114C 159.62,115.985 151.62,117.319 143.5,118C 114.169,118.5 84.8352,118.667 55.5,118.5 Z"/></g>
<g><path style="opacity:1" fill="#ffffff" d="M 140.5,97.5 C 134.716,98.8094 128.716,99.476 122.5,99.5C 118.203,99.7217 114.203,99.055 110.5,97.5C 122.58,98.333 132.58,98.333 140.5,97.5 Z"/></g>
<g><path style="opacity:1" fill="#ffffff" d="M 55.5,118.5 C 47.1723,119.39 38.6723,120.056 30,120.5C 27.6392,120.496 25.4726,120.163 23.5,119.5C 34.1564,118.901 44.8231,118.567 55.5,118.5 Z"/></g>
<g><path style="opacity:1" fill="#ffffff" d="M 179.5,130.5 C 156.824,130.372 134.157,130.705 111.5,131.5C 124.463,129.96 137.63,129.294 151,129.5C 160.673,129.5 170.173,129.834 179.5,130.5 Z"/></g>
<g><path style="opacity:1" fill="#ffffff" d="M 63.5,133.5 C 43.6736,134.497 23.6736,134.83 3.5,134.5C 3.5,135.5 3.5,136.5 3.5,137.5C 6.0593,137.198 8.39263,137.532 10.5,138.5C 7.83333,138.5 5.16667,138.5 2.5,138.5C 2.5,136.833 2.5,135.167 2.5,133.5C 22.8333,133.5 43.1667,133.5 63.5,133.5 Z"/></g>
<g><path style="opacity:1" fill="#ffffff" d="M 179.5,130.5 C 182.187,130.336 184.854,130.503 187.5,131C 188.056,131.383 188.389,131.883 188.5,132.5C 188.5,133.5 188.5,134.5 188.5,135.5C 184.167,135.5 179.833,135.5 175.5,135.5C 159.5,134.167 143.5,134.167 127.5,135.5C 116.624,135.242 105.958,135.909 95.5,137.5C 82.1735,138.055 68.8402,138.389 55.5,138.5C 49.8333,138.5 44.1667,138.5 38.5,138.5C 38.185,142.371 38.5184,146.038 39.5,149.5C 39.6602,151.199 39.4935,152.866 39,154.5C 37.6667,155.833 36.3333,155.833 35,154.5C 34.5045,152.527 34.3379,150.527 34.5,148.5C 34.5,145.167 34.5,141.833 34.5,138.5C 28.1667,138.5 21.8333,138.5 15.5,138.5C 13.8333,138.5 12.1667,138.5 10.5,138.5C 8.39263,137.532 6.0593,137.198 3.5,137.5C 3.5,136.5 3.5,135.5 3.5,134.5C 23.6736,134.83 43.6736,134.497 63.5,133.5C 79.329,132.504 95.329,131.837 111.5,131.5C 134.157,130.705 156.824,130.372 179.5,130.5 Z"/></g>
<g><path style="opacity:1" fill="#ffffff" d="M 127.5,135.5 C 143.5,134.167 159.5,134.167 175.5,135.5C 167.833,135.5 160.167,135.5 152.5,135.5C 152.822,141.358 152.489,147.025 151.5,152.5C 151.404,146.802 150.904,141.135 150,135.5C 149.333,140.833 148.667,140.833 148,135.5C 147.501,141.491 147.334,147.491 147.5,153.5C 146.51,147.69 146.177,141.69 146.5,135.5C 140.167,135.5 133.833,135.5 127.5,135.5 Z"/></g>
<g><path style="opacity:1" fill="#ffffff" d="M 188.5,132.5 C 189.434,133.568 189.768,134.901 189.5,136.5C 184.637,136.819 179.97,136.486 175.5,135.5C 179.833,135.5 184.167,135.5 188.5,135.5C 188.5,134.5 188.5,133.5 188.5,132.5 Z"/></g>
<g><path style="opacity:1" fill="#ffffff" d="M 127.5,135.5 C 117.026,136.821 106.359,137.488 95.5,137.5C 105.958,135.909 116.624,135.242 127.5,135.5 Z"/></g>
<g><path style="opacity:1" fill="#ffffff" d="M 15.5,138.5 C 21.8333,138.5 28.1667,138.5 34.5,138.5C 34.5,141.833 34.5,145.167 34.5,148.5C 33.5233,145.713 33.19,142.713 33.5,139.5C 27.31,139.823 21.31,139.49 15.5,138.5 Z"/></g>
<g><path style="opacity:1" fill="#ffffff" d="M 55.5,138.5 C 50.3595,139.488 45.0262,139.821 39.5,139.5C 39.5,142.833 39.5,146.167 39.5,149.5C 38.5184,146.038 38.185,142.371 38.5,138.5C 44.1667,138.5 49.8333,138.5 55.5,138.5 Z"/></g>
<g><path style="opacity:1" fill="#ffffff" d="M 151.5,152.5 C 151.38,153.586 150.713,154.253 149.5,154.5C 148.584,154.457 147.917,154.124 147.5,153.5C 147.334,147.491 147.501,141.491 148,135.5C 148.667,140.833 149.333,140.833 150,135.5C 150.904,141.135 151.404,146.802 151.5,152.5 Z"/></g>
</svg>